<?xml version="1.0" encoding="UTF-8" standalone="no"?>
<!-- Created with Inkscape (http://www.inkscape.org/) -->

<svg
   xmlns:osb="http://www.openswatchbook.org/uri/2009/osb"
   xmlns:dc="http://purl.org/dc/elements/1.1/"
   xmlns:cc="http://creativecommons.org/ns#"
   xmlns:rdf="http://www.w3.org/1999/02/22-rdf-syntax-ns#"
   xmlns:svg="http://www.w3.org/2000/svg"
   xmlns="http://www.w3.org/2000/svg"
   xmlns:sodipodi="http://sodipodi.sourceforge.net/DTD/sodipodi-0.dtd"
   xmlns:inkscape="http://www.inkscape.org/namespaces/inkscape"
   width="60.506298mm"
   height="18.944248mm"
   viewBox="0 0 60.506298 18.944248"
   version="1.1"
   id="svg8"
   sodipodi:docname="logo.svg"
   inkscape:version="0.92.3 (2405546, 2018-03-11)">
  <defs
     id="defs2">
    <linearGradient
       id="linearGradient4534"
       osb:paint="solid">
      <stop
         style="stop-color:#ff0000;stop-opacity:1;"
         offset="0"
         id="stop4532" />
    </linearGradient>
  </defs>
  <sodipodi:namedview
     id="base"
     pagecolor="#ffffff"
     bordercolor="#666666"
     borderopacity="1.0"
     inkscape:pageopacity="0.0"
     inkscape:pageshadow="2"
     inkscape:zoom="2.8"
     inkscape:cx="68.956378"
     inkscape:cy="22.331765"
     inkscape:document-units="mm"
     inkscape:current-layer="layer1"
     showgrid="false"
     inkscape:window-width="1867"
     inkscape:window-height="1016"
     inkscape:window-x="53"
     inkscape:window-y="27"
     inkscape:window-maximized="1"
     fit-margin-top="0"
     fit-margin-left="0"
     fit-margin-right="0"
     fit-margin-bottom="0" />
  <metadata
     id="metadata5">
    <rdf:RDF>
      <cc:Work
         rdf:about="">
        <dc:format>image/svg+xml</dc:format>
        <dc:type
           rdf:resource="http://purl.org/dc/dcmitype/StillImage" />
        <dc:title></dc:title>
      </cc:Work>
    </rdf:RDF>
  </metadata>
  <g
     inkscape:label="Layer 1"
     inkscape:groupmode="layer"
     id="layer1"
     transform="translate(-58.580571,-149.87183)">
    <path
       style="fill:none;fill-opacity:1;stroke:#389d6f;stroke-width:0.63628888;stroke-miterlimit:4;stroke-dasharray:none;stroke-opacity:1"
       d="m 77.206677,159.34395 a 9.1539812,9.1539812 0 0 1 -9.153981,9.15398 9.1539812,9.1539812 0 0 1 -9.153981,-9.15398 9.1539812,9.1539812 0 0 1 9.153981,-9.15398 9.1539812,9.1539812 0 0 1 9.153981,9.15398 z"
       id="path879"
       inkscape:connector-curvature="0" />
    <circle
       style="fill:none;fill-opacity:1;stroke:#68ea1b;stroke-width:0.29800001;stroke-miterlimit:4;stroke-dasharray:none;stroke-opacity:1"
       id="path4522"
       cx="91.539009"
       cy="159.34395"
       r="0" />
    <g
       aria-label="G"
       style="font-style:normal;font-variant:normal;font-weight:normal;font-stretch:normal;font-size:16.71883011px;line-height:1.25;font-family:Sawasdee;-inkscape-font-specification:Sawasdee;letter-spacing:0px;word-spacing:0px;fill:#0c1902;fill-opacity:1;stroke:none;stroke-width:0.41797075"
       id="text4520">
      <path
         d="m 73.016099,155.63364 -0.587771,0.43266 q -0.759205,-1.02044 -1.910257,-1.60821 -1.142889,-0.59593 -2.473538,-0.59593 -1.485756,0 -2.742933,0.73471 -1.249014,0.73472 -1.975565,2.00006 -0.726551,1.25717 -0.726551,2.75109 0,1.11024 0.424502,2.12251 0.432665,1.01227 1.159215,1.74699 0.726551,0.73471 1.738824,1.17554 1.012273,0.43267 2.122508,0.43267 1.420447,0 2.644971,-0.67757 1.224524,-0.68574 1.967401,-1.86128 0.742878,-1.17554 0.832677,-2.57966 h -5.445049 v -0.72655 h 6.187926 v 0.36735 q 0,1.26534 -0.489809,2.4164 -0.48981,1.14289 -1.322486,1.97556 -0.824512,0.83268 -1.975565,1.32249 -1.142888,0.48981 -2.400066,0.48981 -1.257178,0 -2.400067,-0.48981 -1.142888,-0.48981 -1.967401,-1.32249 -0.824513,-0.83267 -1.314322,-1.97556 -0.48981,-1.15106 -0.48981,-2.4164 0,-1.26534 0.48981,-2.41639 0.489809,-1.15105 1.314322,-1.98373 0.824513,-0.83267 1.967401,-1.32248 1.142889,-0.48981 2.400067,-0.48981 1.493919,0 2.808241,0.6694 1.314322,0.66941 2.163325,1.82863 z"
         style="font-style:normal;font-variant:normal;font-weight:normal;font-stretch:normal;line-height:1.25;font-family:Sawasdee;-inkscape-font-specification:Sawasdee;fill:#0c1902;fill-opacity:1;stroke-width:0.41797075"
         id="path838"
         inkscape:connector-curvature="0" />
    </g>
    <g
       aria-label="iphygram
"
       style="font-style:normal;font-weight:normal;font-size:10.58333302px;line-height:1.25;font-family:sans-serif;letter-spacing:0px;word-spacing:0px;fill:#000000;fill-opacity:1;stroke:none;stroke-width:0.26458332"
       id="text4540">
      <path
         d="m 78.350334,155.3752 q 0,-0.17053 0.118856,-0.29456 0.124023,-0.12402 0.299723,-0.12402 0.170532,0 0.289388,0.12402 0.124024,0.12403 0.124024,0.29456 0,0.1757 -0.118856,0.29972 -0.118856,0.11886 -0.294556,0.11886 -0.1757,0 -0.299723,-0.11886 -0.118856,-0.12402 -0.118856,-0.29972 z m 0.651123,6.48022 h -0.465088 v -5.23999 h 0.465088 z"
         style="font-style:normal;font-variant:normal;font-weight:normal;font-stretch:normal;font-family:Sawasdee;-inkscape-font-specification:Sawasdee;stroke-width:0.26458332"
         id="path821"
         inkscape:connector-curvature="0" />
      <path
         d="m 80.598259,156.61543 h 0.496094 q 0.09819,0.34107 0.09819,0.69247 v 0.65112 q 0.19637,-0.5426 0.775146,-0.98185 0.578776,-0.44442 1.167888,-0.44442 0.65629,0 1.20406,0.37207 0.547771,0.3669 0.857829,0.98702 0.315226,0.62012 0.315226,1.33842 0,0.72347 -0.315226,1.34876 -0.310058,0.62011 -0.857829,0.98701 -0.54777,0.36691 -1.20406,0.36691 -0.599447,0 -1.178223,-0.42375 -0.573608,-0.42891 -0.764811,-0.99735 v 3.93257 H 80.72745 v -7.13651 q 0,-0.44442 -0.129191,-0.69247 z m 1.167887,1.03353 q -0.573608,0.65112 -0.573608,1.5813 0,0.93018 0.573608,1.58647 0.573609,0.65629 1.369426,0.65629 0.785481,0 1.364257,-0.65629 0.578776,-0.66146 0.578776,-1.58647 0,-0.93018 -0.578776,-1.5813 -0.578776,-0.65112 -1.364257,-0.65112 -0.795817,0 -1.369426,0.65112 z"
         style="font-style:normal;font-variant:normal;font-weight:normal;font-stretch:normal;font-family:Sawasdee;-inkscape-font-specification:Sawasdee;stroke-width:0.26458332"
         id="path823"
         inkscape:connector-curvature="0" />
      <path
         d="m 87.011304,161.85542 v -7.71529 h 0.465088 v 3.96358 q 0.268717,-0.63045 0.780314,-1.1007 0.511597,-0.47026 0.98702,-0.47026 0.527099,0 0.888834,0.29456 0.366903,0.29455 0.5271,0.75447 0.165364,0.45992 0.165364,1.0387 v 3.23494 h -0.454752 v -3.23494 q 0,-0.28422 -0.05684,-0.54777 -0.05168,-0.26355 -0.170532,-0.51677 -0.118856,-0.25321 -0.356568,-0.40307 -0.232544,-0.15503 -0.552938,-0.15503 -0.304891,0 -0.63562,0.23771 -0.325561,0.23771 -0.56844,0.58394 -0.237712,0.34107 -0.397909,0.72864 -0.155029,0.38757 -0.155029,0.68213 v 2.62516 z"
         style="font-style:normal;font-variant:normal;font-weight:normal;font-stretch:normal;font-family:Sawasdee;-inkscape-font-specification:Sawasdee;stroke-width:0.26458332"
         id="path825"
         inkscape:connector-curvature="0" />
      <path
         d="m 91.868889,156.61543 h 0.475423 l 1.803507,4.62504 1.762167,-4.62504 h 0.496093 l -3.012735,7.93234 H 92.89725 l 1.018026,-2.68201 z"
         style="font-style:normal;font-variant:normal;font-weight:normal;font-stretch:normal;font-family:Sawasdee;-inkscape-font-specification:Sawasdee;stroke-width:0.26458332"
         id="path827"
         inkscape:connector-curvature="0" />
      <path
         d="m 101.63573,156.61543 h 0.4961 q -0.12403,0.23771 -0.12403,0.69247 v 4.54752 q 0,0.72347 -0.32556,1.34359 -0.32039,0.62012 -0.8785,0.98185 -0.5581,0.36691 -1.21956,0.36691 -0.909505,0 -1.581299,-0.6718 l 0.335897,-0.32039 q 0.54777,0.53226 1.266073,0.53226 0.795819,0 1.369429,-0.65112 0.5736,-0.65112 0.5736,-1.5813 v -1.34358 q -0.1912,0.56327 -0.76997,0.99218 -0.57361,0.42892 -1.173059,0.42892 -0.656291,0 -1.209229,-0.36691 -0.54777,-0.3669 -0.862996,-0.98701 -0.310059,-0.62529 -0.310059,-1.34876 0,-0.72347 0.310059,-1.33842 0.315226,-0.62012 0.862996,-0.98702 0.552938,-0.37207 1.209229,-0.37207 0.589109,0 1.167889,0.44442 0.57877,0.43925 0.77514,0.98185 v -0.65112 q 0,-0.38758 0.0878,-0.69247 z m -0.11885,2.61483 q 0,-0.93018 -0.57878,-1.5813 -0.57361,-0.65112 -1.364255,-0.65112 -0.795817,0 -1.369426,0.65112 -0.573608,0.65112 -0.573608,1.5813 0,0.93018 0.573608,1.58647 0.578776,0.65629 1.369426,0.65629 0.790645,0 1.364255,-0.65629 0.57878,-0.66146 0.57878,-1.58647 z"
         style="font-style:normal;font-variant:normal;font-weight:normal;font-stretch:normal;font-family:Sawasdee;-inkscape-font-specification:Sawasdee;stroke-width:0.26458332"
         id="path829"
         inkscape:connector-curvature="0" />
      <path
         d="m 103.60461,156.61543 h 0.49609 q 0.0982,0.34107 0.0982,0.69247 v 0.65112 q 0.11886,-0.39791 0.55294,-0.82682 0.43408,-0.42892 0.87333,-0.59945 l 0.51677,0.3669 q -0.45475,0 -0.90951,0.3204 -0.44958,0.32039 -0.74414,0.85266 -0.28939,0.5271 -0.28939,1.09037 v 2.69234 h -0.46508 v -4.54752 q 0,-0.44442 -0.12919,-0.69247 z"
         style="font-style:normal;font-variant:normal;font-weight:normal;font-stretch:normal;font-family:Sawasdee;-inkscape-font-specification:Sawasdee;stroke-width:0.26458332"
         id="path831"
         inkscape:connector-curvature="0" />
      <path
         d="m 110.9685,161.85542 h -0.4961 q -0.093,-0.29455 -0.093,-0.69246 v -0.40825 q -0.37207,0.51677 -0.89401,0.85267 -0.51676,0.33589 -1.09554,0.33589 -0.41858,0 -0.7493,-0.12919 -0.32557,-0.13436 -0.51677,-0.3514 -0.1912,-0.21704 -0.28939,-0.45992 -0.0982,-0.24805 -0.0982,-0.50126 0,-0.26355 0.0775,-0.48576 0.0827,-0.22221 0.20671,-0.37724 0.12919,-0.16019 0.33589,-0.28422 0.21188,-0.12919 0.40308,-0.2067 0.19637,-0.0827 0.48576,-0.13953 0.28939,-0.062 0.50126,-0.0879 0.21187,-0.031 0.5271,-0.0465 0.31523,-0.0155 0.49609,-0.0155 0.18604,-0.005 0.47026,-0.005 h 0.13953 q -0.0258,-0.85266 -0.50643,-1.35909 -0.47543,-0.50643 -1.10071,-0.50643 -0.3669,0 -0.7183,0.19121 -0.34624,0.1912 -0.60462,0.5581 l -0.3669,-0.24288 q 0.31523,-0.48576 0.75964,-0.72864 0.44442,-0.24287 0.93018,-0.24287 0.39274,0 0.75448,0.16019 0.3669,0.15503 0.65629,0.44442 0.28938,0.28422 0.46508,0.7338 0.18087,0.44959 0.19121,0.99219 v 2.30994 q 0,0.44958 0.12919,0.69246 z m -2.57866,-0.37207 q 0.59428,0 1.15239,-0.39791 0.5581,-0.3979 0.83716,-0.9095 v -0.99219 q -0.24288,0.005 -0.40825,0.0103 -0.16019,0.005 -0.44441,0.0258 -0.27906,0.0155 -0.47543,0.0413 -0.19637,0.0207 -0.45992,0.0723 -0.25838,0.0517 -0.43925,0.11886 -0.18087,0.062 -0.37724,0.16536 -0.1912,0.0982 -0.31005,0.22221 -0.11886,0.11886 -0.19637,0.28939 -0.0724,0.17053 -0.0724,0.37207 0,0.37207 0.31006,0.67696 0.31006,0.30489 0.88366,0.30489 z"
         style="font-style:normal;font-variant:normal;font-weight:normal;font-stretch:normal;font-family:Sawasdee;-inkscape-font-specification:Sawasdee;stroke-width:0.26458332"
         id="path833"
         inkscape:connector-curvature="0" />
      <path
         d="m 112.43094,156.61543 h 0.49609 q 0.0982,0.34107 0.0982,0.69247 v 0.75447 q 0.24805,-0.60978 0.71313,-1.0697 0.46509,-0.45992 0.8785,-0.45992 0.61495,0 0.98702,0.42891 0.37207,0.42375 0.47026,1.10071 0.25838,-0.63045 0.69246,-1.0697 0.43925,-0.44442 0.863,-0.44442 0.48576,0 0.82165,0.30489 0.34107,0.29973 0.48576,0.75965 0.14986,0.45475 0.14986,1.01802 v 3.22461 h -0.46508 v -3.22461 q 0,-0.27905 -0.0465,-0.5426 -0.0465,-0.26355 -0.15503,-0.51676 -0.10335,-0.25322 -0.31006,-0.40825 -0.20671,-0.15503 -0.49093,-0.15503 -0.34623,0 -0.72347,0.39274 -0.37723,0.38758 -0.61495,0.91468 -0.23771,0.5271 -0.23771,0.93534 v 2.60449 h -0.46509 v -3.23494 q 0,-0.28422 -0.0465,-0.54777 -0.0465,-0.26355 -0.14987,-0.51677 -0.10335,-0.25321 -0.31522,-0.40307 -0.20671,-0.15503 -0.4961,-0.15503 -0.32039,0 -0.69246,0.37207 -0.3669,0.37207 -0.60978,0.89917 -0.24288,0.5271 -0.24288,0.96118 v 2.62516 h -0.46509 v -4.54752 q 0,-0.44442 -0.12919,-0.69247 z"
         style="font-style:normal;font-variant:normal;font-weight:normal;font-stretch:normal;font-family:Sawasdee;-inkscape-font-specification:Sawasdee;stroke-width:0.26458332"
         id="path835"
         inkscape:connector-curvature="0" />
    </g>
  </g>
</svg>
